<svg width="248" height="177" version="1.1" xmlns="http://www.w3.org/2000/svg" desc="Created with imagetracer.js version 1.2.6" ><path fill="rgb(253,251,240)" stroke="rgb(253,251,240)" stroke-width="1" opacity="1" d="M 101.5 25 L 106 25.5 L 101.5 26 L 101.5 25 Z " /><path fill="rgb(253,251,240)" stroke="rgb(253,251,240)" stroke-width="1" opacity="1" d="M 109.5 25 L 115 25.5 L 109.5 26 L 109.5 25 Z " /><path fill="rgb(253,251,240)" stroke="rgb(253,251,240)" stroke-width="1" opacity="1" d="M 124.5 27 L 127 27.5 L 124.5 28 L 124.5 27 Z " /><path fill="rgb(253,251,240)" stroke="rgb(253,251,240)" stroke-width="1" opacity="1" d="M 220.5 32 L 219.5 34 L 220.5 32 Z " /><path fill="rgb(253,251,240)" stroke="rgb(253,251,240)" stroke-width="1" opacity="1" d="M 72.5 34 L 71.5 36 L 72.5 34 Z " /><path fill="rgb(253,251,240)" stroke="rgb(253,251,240)" stroke-width="1" opacity="1" d="M 67.5 37 L 66.5 39 L 67.5 37 Z " /><path fill="rgb(253,251,240)" stroke="rgb(253,251,240)" stroke-width="1" opacity="1" d="M 93.5 38 L 109 38.5 L 93.5 39 L 93.5 38 Z " /><path fill="rgb(253,251,240)" stroke="rgb(253,251,240)" stroke-width="1" opacity="1" d="M 149.5 38 L 150.5 40 L 149.5 38 Z " /><path fill="rgb(253,251,240)" stroke="rgb(253,251,240)" stroke-width="1" opacity="1" d="M 63.5 40 L 60.5 44 L 63.5 40 Z " /><path fill="rgb(253,251,240)" stroke="rgb(253,251,240)" stroke-width="1" opacity="1" d="M 152.5 40 L 162.5 51 L 152.5 40 Z " /><path fill="rgb(253,251,240)" stroke="rgb(253,251,240)" stroke-width="1" opacity="1" d="M 220.5 43 L 221 45.5 L 220 45.5 L 220.5 43 Z " /><path fill="rgb(253,251,240)" stroke="rgb(253,251,240)" stroke-width="1" opacity="1" d="M 71.5 45 L 70.5 47 L 71.5 45 Z " /><path fill="rgb(253,251,240)" stroke="rgb(253,251,240)" stroke-width="1" opacity="1" d="M 55.5 48 L 51.5 53 L 55.5 48 Z " /><path fill="rgb(253,251,240)" stroke="rgb(253,251,240)" stroke-width="1" opacity="1" d="M 66.5 48 L 65.5 50 L 66.5 48 Z " /><path fill="rgb(253,251,240)" stroke="rgb(253,251,240)" stroke-width="1" opacity="1" d="M 136.5 49 L 137.5 51 L 136.5 49 Z " /><path fill="rgb(253,251,240)" stroke="rgb(253,251,240)" stroke-width="1" opacity="1" d="M 62.5 51 L 61.5 53 L 62.5 51 Z " /><path fill="rgb(253,251,240)" stroke="rgb(253,251,240)" stroke-width="1" opacity="1" d="M 139.5 51 L 143.5 56 L 139.5 51 Z " /><path fill="rgb(253,251,240)" stroke="rgb(253,251,240)" stroke-width="1" opacity="1" d="M 209.5 52 L 208.5 54 L 209.5 52 Z " /><path fill="rgb(253,251,240)" stroke="rgb(253,251,240)" stroke-width="1" opacity="1" d="M 50.5 54 L 49.5 56 L 50.5 54 Z " /><path fill="rgb(253,251,240)" stroke="rgb(253,251,240)" stroke-width="1" opacity="1" d="M 165.5 54 L 166.5 56 L 165.5 54 Z " /><path fill="rgb(253,251,240)" stroke="rgb(253,251,240)" stroke-width="1" opacity="1" d="M 206.5 56 L 206 57.5 L 204.5 60 L 205 58.5 L 206.5 56 Z " /><path fill="rgb(253,251,240)" stroke="rgb(253,251,240)" stroke-width="1" opacity="1" d="M 147.5 59 L 148.5 61 L 147.5 59 Z " /><path fill="rgb(253,251,240)" stroke="rgb(253,251,240)" stroke-width="1" opacity="1" d="M 53.5 60 L 51.5 63 L 53.5 60 Z " /><path fill="rgb(253,251,240)" stroke="rgb(253,251,240)" stroke-width="1" opacity="1" d="M 202.5 62 L 201.5 64 L 202.5 62 Z " /><path fill="rgb(253,251,240)" stroke="rgb(253,251,240)" stroke-width="1" opacity="1" d="M 152.5 66 L 153.5 68 L 152.5 66 Z " /><path fill="rgb(253,251,240)" stroke="rgb(253,251,240)" stroke-width="1" opacity="1" d="M 199.5 66 L 197.5 69 L 199.5 66 Z " /><path fill="rgb(253,251,240)" stroke="rgb(253,251,240)" stroke-width="1" opacity="1" d="M 48.5 67 L 47.5 69 L 48.5 67 Z " /><path fill="rgb(253,251,240)" stroke="rgb(253,251,240)" stroke-width="1" opacity="1" d="M 212.5 69 L 213 70.5 L 211 71.5 L 212.5 69 Z " /><path fill="rgb(253,251,240)" stroke="rgb(253,251,240)" stroke-width="1" opacity="1" d="M 155.5 70 L 157 72.5 L 155 71.5 L 155.5 70 Z " /><path fill="rgb(253,251,240)" stroke="rgb(253,251,240)" stroke-width="1" opacity="1" d="M 196.5 70 L 193.5 74 L 196.5 70 Z " /><path fill="rgb(253,251,240)" stroke="rgb(253,251,240)" stroke-width="1" opacity="1" d="M 118.5 75 L 119.5 77 L 118.5 75 Z " /><path fill="rgb(253,251,240)" stroke="rgb(253,251,240)" stroke-width="1" opacity="1" d="M 87.5 76 L 86.5 78 L 87.5 76 Z " /><path fill="rgb(253,251,240)" stroke="rgb(253,251,240)" stroke-width="1" opacity="1" d="M 190.5 77 L 184.5 84 L 190.5 77 Z " /><path fill="rgb(253,251,240)" stroke="rgb(253,251,240)" stroke-width="1" opacity="1" d="M 122.5 78 L 123.5 80 L 122.5 78 Z " /><path fill="rgb(253,251,240)" stroke="rgb(253,251,240)" stroke-width="1" opacity="1" d="M 84.5 79 L 81.5 83 L 84.5 79 Z " /><path fill="rgb(253,251,240)" stroke="rgb(253,251,240)" stroke-width="1" opacity="1" d="M 175.5 80 L 171.5 85 L 175.5 80 Z " /><path fill="rgb(253,251,240)" stroke="rgb(253,251,240)" stroke-width="1" opacity="1" d="M 38.5 81 L 39 83.5 L 38 83.5 L 38.5 81 Z " /><path fill="rgb(253,251,240)" stroke="rgb(253,251,240)" stroke-width="1" opacity="1" d="M 203.5 84 L 200.5 88 L 203.5 84 Z " /><path fill="rgb(253,251,240)" stroke="rgb(253,251,240)" stroke-width="1" opacity="1" d="M 181.5 86 L 180.5 88 L 181.5 86 Z " /><path fill="rgb(253,251,240)" stroke="rgb(253,251,240)" stroke-width="1" opacity="1" d="M 165.5 89 L 164.5 91 L 165.5 89 Z " /><path fill="rgb(253,251,240)" stroke="rgb(253,251,240)" stroke-width="1" opacity="1" d="M 178.5 89 L 174.5 94 L 178.5 89 Z " /><path fill="rgb(253,251,240)" stroke="rgb(253,251,240)" stroke-width="1" opacity="1" d="M 196.5 92 L 193.5 96 L 196.5 92 Z " /><path fill="rgb(253,251,240)" stroke="rgb(253,251,240)" stroke-width="1" opacity="1" d="M 37.5 93 L 39 98.5 L 38 98.5 L 37.5 93 Z " /><path fill="rgb(253,251,240)" stroke="rgb(253,251,240)" stroke-width="1" opacity="1" d="M 76.5 96 L 77 99.5 L 76 99.5 L 76.5 96 Z " /><path fill="rgb(253,251,240)" stroke="rgb(253,251,240)" stroke-width="1" opacity="1" d="M 170.5 96 L 168.5 99 L 170.5 96 Z " /><path fill="rgb(253,251,240)" stroke="rgb(253,251,240)" stroke-width="1" opacity="1" d="M 188.5 99 L 186.5 102 L 188.5 99 Z " /><path fill="rgb(253,251,240)" stroke="rgb(253,251,240)" stroke-width="1" opacity="1" d="M 165.5 100 L 163.5 103 L 165.5 100 Z " /><path fill="rgb(253,251,240)" stroke="rgb(253,251,240)" stroke-width="1" opacity="1" d="M 129.5 103 L 130 105.5 L 129 105.5 L 129.5 103 Z " /><path fill="rgb(253,251,240)" stroke="rgb(253,251,240)" stroke-width="1" opacity="1" d="M 161.5 103 L 158.5 107 L 161.5 103 Z " /><path fill="rgb(253,251,240)" stroke="rgb(253,251,240)" stroke-width="1" opacity="1" d="M 183.5 103 L 181.5 106 L 183.5 103 Z " /><path fill="rgb(253,251,240)" stroke="rgb(253,251,240)" stroke-width="1" opacity="1" d="M 179.5 106 L 178.5 108 L 179.5 106 Z " /><path fill="rgb(253,251,240)" stroke="rgb(253,251,240)" stroke-width="1" opacity="1" d="M 153.5 109 L 152.5 111 L 153.5 109 Z " /><path fill="rgb(253,251,240)" stroke="rgb(253,251,240)" stroke-width="1" opacity="1" d="M 81.5 113 L 86.5 119 L 81.5 113 Z " /><path fill="rgb(253,251,240)" stroke="rgb(253,251,240)" stroke-width="1" opacity="1" d="M 125.5 113 L 124.5 115 L 125.5 113 Z " /><path fill="rgb(253,251,240)" stroke="rgb(253,251,240)" stroke-width="1" opacity="1" d="M 147.5 113 L 146.5 115 L 147.5 113 Z " /><path fill="rgb(253,251,240)" stroke="rgb(253,251,240)" stroke-width="1" opacity="1" d="M 120.5 118 L 119.5 120 L 120.5 118 Z " /><path fill="rgb(253,251,240)" stroke="rgb(253,251,240)" stroke-width="1" opacity="1" d="M 89.5 120 L 90.5 122 L 89.5 120 Z " /><path fill="rgb(253,251,240)" stroke="rgb(253,251,240)" stroke-width="1" opacity="1" d="M 99.5 124 L 103 124.5 L 99.5 125 L 99.5 124 Z " /><path fill="rgb(253,251,240)" stroke="rgb(253,251,240)" stroke-width="1" opacity="1" d="M 104.5 124 L 108 124.5 L 104.5 125 L 104.5 124 Z " /><path fill="rgb(253,251,240)" stroke="rgb(253,251,240)" stroke-width="1" opacity="1" d="M 170.5 127 L 171 128.5 L 169 129.5 L 170.5 127 Z " /><path fill="rgb(253,251,240)" stroke="rgb(253,251,240)" stroke-width="1" opacity="1" d="M 121.5 130 L 124 130.5 L 121.5 131 L 121.5 130 Z " /><path fill="rgb(253,251,240)" stroke="rgb(253,251,240)" stroke-width="1" opacity="1" d="M 114.5 131 L 117 131.5 L 114.5 132 L 114.5 131 Z " /><path fill="rgb(253,251,240)" stroke="rgb(253,251,240)" stroke-width="1" opacity="1" d="M 163.5 138 L 162.5 140 L 163.5 138 Z " /><path fill="rgb(253,251,240)" stroke="rgb(253,251,240)" stroke-width="1" opacity="1" d="M 150.5 139 L 147.5 143 L 150.5 139 Z " /><path fill="rgb(253,251,240)" stroke="rgb(253,251,240)" stroke-width="1" opacity="1" d="M 144.5 145 L 143.5 147 L 144.5 145 Z " /><path fill="rgb(253,251,240)" stroke="rgb(253,251,240)" stroke-width="1" opacity="1" d="M 154.5 147 L 151.5 151 L 154.5 147 Z " /><path fill="rgb(253,251,240)" stroke="rgb(253,251,240)" stroke-width="1" opacity="1" d="M 141.5 148 L 138.5 152 L 141.5 148 Z " /><path fill="rgb(253,251,240)" stroke="rgb(253,251,240)" stroke-width="1" opacity="1" d="M 136.5 152 L 135.5 154 L 136.5 152 Z " /><path fill="rgb(253,251,240)" stroke="rgb(253,251,240)" stroke-width="1" opacity="1" d="M 133.5 154 L 132.5 156 L 133.5 154 Z " /><path fill="rgb(253,251,240)" stroke="rgb(253,251,240)" stroke-width="1" opacity="1" d="M 145.5 154 L 144.5 156 L 143 155.5 L 145.5 154 Z " /><path fill="rgb(253,251,240)" stroke="rgb(253,251,240)" stroke-width="1" opacity="1" d="M 141.5 156 L 140.5 158 L 141.5 156 Z " /><path fill="rgb(253,254,253)" stroke="rgb(253,254,253)" stroke-width="1" opacity="1" d="M 96.5 25 L 101 25.5 L 96.5 26 L 96.5 25 Z " /><path fill="rgb(253,254,253)" stroke="rgb(253,254,253)" stroke-width="1" opacity="1" d="M 115.5 25 Q 121.3 24.3 124 26.5 L 121.5 27 Q 120.2 24.8 115.5 26 L 115.5 25 Z " /><path fill="rgb(253,254,253)" stroke="rgb(253,254,253)" stroke-width="1" opacity="1" d="M 92.5 26 L 95 26.5 L 92.5 27 L 92.5 26 Z " /><path fill="rgb(253,254,253)" stroke="rgb(253,254,253)" stroke-width="1" opacity="1" d="M 130.5 28 L 134 29.5 L 132.5 29 Q 129.5 29.5 130.5 28 Z " /><path fill="rgb(253,254,253)" stroke="rgb(253,254,253)" stroke-width="1" opacity="1" d="M 78.5 30 L 81 30.5 L 77.5 32 L 78.5 30 Z " /><path fill="rgb(253,254,253)" stroke="rgb(253,254,253)" stroke-width="1" opacity="1" d="M 138.5 31 L 142.5 32 L 144 31.5 L 143 33.5 L 143.5 35 L 138.5 32 L 138.5 31 Z " /><path fill="rgb(253,254,253)" stroke="rgb(253,254,253)" stroke-width="1" opacity="1" d="M 221.5 31 L 222 38.5 L 221 38.5 L 221.5 31 Z " /><path fill="rgb(253,254,253)" stroke="rgb(253,254,253)" stroke-width="1" opacity="1" d="M 72.5 33 L 74 33.5 L 68.5 37 L 69.5 35 L 72.5 33 Z " /><path fill="rgb(253,254,253)" stroke="rgb(253,254,253)" stroke-width="1" opacity="1" d="M 147.5 36 L 151 37 L 152 39.5 L 149.5 38 L 147.5 36 Z " /><path fill="rgb(253,254,253)" stroke="rgb(253,254,253)" stroke-width="1" opacity="1" d="M 66.5 37 L 64.5 40 L 66.5 37 Z " /><path fill="rgb(253,254,253)" stroke="rgb(253,254,253)" stroke-width="1" opacity="1" d="M 216 37 L 218 37.5 L 215.5 41 L 216 39.5 L 216 37 Z " /><path fill="rgb(253,254,253)" stroke="rgb(253,254,253)" stroke-width="1" opacity="1" d="M 84.5 40 L 83.5 42 L 82 41.5 L 84.5 40 Z " /><path fill="rgb(253,254,253)" stroke="rgb(253,254,253)" stroke-width="1" opacity="1" d="M 153.5 40 L 156 41 L 158.5 45 L 161 46.5 L 163 49.5 L 167 54.5 L 163 51.5 L 153.5 40 Z " /><path fill="rgb(253,254,253)" stroke="rgb(253,254,253)" stroke-width="1" opacity="1" d="M 61.5 41 L 55.5 48 L 58 44.5 Q 57.3 42.3 59.5 43 L 61.5 41 Z " /><path fill="rgb(253,254,253)" stroke="rgb(253,254,253)" stroke-width="1" opacity="1" d="M 214.5 42 L 214 43.5 L 213.5 45 L 213 43.5 L 214.5 42 Z " /><path fill="rgb(253,254,253)" stroke="rgb(253,254,253)" stroke-width="1" opacity="1" d="M 76.5 43 L 75.5 45 L 74 44.5 L 76.5 43 Z " /><path fill="rgb(253,254,253)" stroke="rgb(253,254,253)" stroke-width="1" opacity="1" d="M 124.5 43 L 128 44.5 L 126.5 45 L 124.5 43 Z " /><path fill="rgb(253,254,253)" stroke="rgb(253,254,253)" stroke-width="1" opacity="1" d="M 212.5 46 L 211.5 48 L 210 47.5 L 212.5 46 Z " /><path fill="rgb(253,254,253)" stroke="rgb(253,254,253)" stroke-width="1" opacity="1" d="M 138.5 51 L 142.5 56 L 138.5 51 Z " /><path fill="rgb(253,254,253)" stroke="rgb(253,254,253)" stroke-width="1" opacity="1" d="M 209.5 51 L 208.5 53 L 209.5 51 Z " /><path fill="rgb(253,254,253)" stroke="rgb(253,254,253)" stroke-width="1" opacity="1" d="M 60.5 53 L 54.5 60 L 60.5 53 Z " /><path fill="rgb(253,254,253)" stroke="rgb(253,254,253)" stroke-width="1" opacity="1" d="M 207.5 54 L 206.5 56 L 207.5 54 Z " /><path fill="rgb(253,254,253)" stroke="rgb(253,254,253)" stroke-width="1" opacity="1" d="M 48.5 56 L 47.5 58 L 48.5 56 Z " /><path fill="rgb(253,254,253)" stroke="rgb(253,254,253)" stroke-width="1" opacity="1" d="M 144.5 56 L 146.5 59 Q 144.3 59.8 145 57.5 L 144.5 56 Z " /><path fill="rgb(253,254,253)" stroke="rgb(253,254,253)" stroke-width="1" opacity="1" d="M 168.5 58 Q 170.8 57.3 170 59.5 L 168.5 58 Z " /><path fill="rgb(253,254,253)" stroke="rgb(253,254,253)" stroke-width="1" opacity="1" d="M 204.5 58 L 204 59.5 L 197.5 68 L 200 64.5 L 204.5 58 Z " /><path fill="rgb(253,254,253)" stroke="rgb(253,254,253)" stroke-width="1" opacity="1" d="M 147.5 60 L 152 65.5 L 150 64.5 L 147.5 60 Z " /><path fill="rgb(253,254,253)" stroke="rgb(253,254,253)" stroke-width="1" opacity="1" d="M 170.5 61 L 172 63.5 L 171 63.5 L 170.5 61 Z " /><path fill="rgb(253,254,253)" stroke="rgb(253,254,253)" stroke-width="1" opacity="1" d="M 52.5 62 L 50.5 65 L 52.5 62 Z " /><path fill="rgb(253,254,253)" stroke="rgb(253,254,253)" stroke-width="1" opacity="1" d="M 111.5 68 L 112 70.5 L 112.5 72 L 114 71.5 L 112.5 73 Q 110.7 69.9 109 71.5 L 111.5 68 Z " /><path fill="rgb(253,254,253)" stroke="rgb(253,254,253)" stroke-width="1" opacity="1" d="M 153.5 68 L 154.5 70 Q 151.7 70.7 153.5 68 Z " /><path fill="rgb(253,254,253)" stroke="rgb(253,254,253)" stroke-width="1" opacity="1" d="M 47.5 69 L 47 70.5 L 46.5 72 L 46 70.5 L 47.5 69 Z " /><path fill="rgb(253,254,253)" stroke="rgb(253,254,253)" stroke-width="1" opacity="1" d="M 174.5 70 Q 177.5 72 177 77.5 L 176 77.5 L 174.5 70 Z " /><path fill="rgb(253,254,253)" stroke="rgb(253,254,253)" stroke-width="1" opacity="1" d="M 212.5 71 L 211.5 73 L 212.5 71 Z " /><path fill="rgb(253,254,253)" stroke="rgb(253,254,253)" stroke-width="1" opacity="1" d="M 155.5 72 L 157 74.5 L 155 73.5 L 155.5 72 Z " /><path fill="rgb(253,254,253)" stroke="rgb(253,254,253)" stroke-width="1" opacity="1" d="M 90.5 73 L 92 73.5 L 84.5 79 L 87.5 75 L 90.5 73 Z " /><path fill="rgb(253,254,253)" stroke="rgb(253,254,253)" stroke-width="1" opacity="1" d="M 117.5 74 L 122 76.5 L 121.5 78 L 117.5 74 Z " /><path fill="rgb(253,254,253)" stroke="rgb(253,254,253)" stroke-width="1" opacity="1" d="M 123.5 74 L 125 76.5 L 124 78.5 L 125.5 81 L 127 80.5 L 129 86.5 L 128 86.5 L 123 78.5 L 123.5 74 Z " /><path fill="rgb(253,254,253)" stroke="rgb(253,254,253)" stroke-width="1" opacity="1" d="M 210.5 74 L 210 75.5 L 208.5 78 L 209 76.5 L 210.5 74 Z " /><path fill="rgb(253,254,253)" stroke="rgb(253,254,253)" stroke-width="1" opacity="1" d="M 157.5 76 L 159 78.5 L 158 78.5 L 157.5 76 Z " /><path fill="rgb(253,254,253)" stroke="rgb(253,254,253)" stroke-width="1" opacity="1" d="M 190.5 76 L 189.5 78 L 190.5 76 Z " /><path fill="rgb(253,254,253)" stroke="rgb(253,254,253)" stroke-width="1" opacity="1" d="M 187.5 79 L 184 83.5 L 182.5 86 L 182 84.5 L 187.5 79 Z " /><path fill="rgb(253,254,253)" stroke="rgb(253,254,253)" stroke-width="1" opacity="1" d="M 207.5 79 L 206 81.5 L 204.5 84 L 205 82.5 L 207.5 79 Z " /><path fill="rgb(253,254,253)" stroke="rgb(253,254,253)" stroke-width="1" opacity="1" d="M 129.5 82 L 130.5 84 Q 127.7 84.7 129.5 82 Z " /><path fill="rgb(253,254,253)" stroke="rgb(253,254,253)" stroke-width="1" opacity="1" d="M 80.5 83 L 80 84.5 L 79.5 86 L 79 84.5 L 80.5 83 Z " /><path fill="rgb(253,254,253)" stroke="rgb(253,254,253)" stroke-width="1" opacity="1" d="M 160.5 84 L 161 85.5 L 159 86.5 L 160.5 84 Z " /><path fill="rgb(253,254,253)" stroke="rgb(253,254,253)" stroke-width="1" opacity="1" d="M 170.5 85 L 165.5 91 L 170.5 85 Z " /><path fill="rgb(253,254,253)" stroke="rgb(253,254,253)" stroke-width="1" opacity="1" d="M 78.5 87 L 78 88.5 L 77.5 91 L 77 88.5 L 78.5 87 Z " /><path fill="rgb(253,254,253)" stroke="rgb(253,254,253)" stroke-width="1" opacity="1" d="M 161.5 88 L 162 91 L 164 91.5 L 162.5 92 Q 160 91 161.5 88 Z " /><path fill="rgb(253,254,253)" stroke="rgb(253,254,253)" stroke-width="1" opacity="1" d="M 178.5 88 L 180 88.5 L 171.5 96 L 178.5 88 Z " /><path fill="rgb(253,254,253)" stroke="rgb(253,254,253)" stroke-width="1" opacity="1" d="M 200.5 88 L 197.5 92 L 200.5 88 Z " /><path fill="rgb(253,254,253)" stroke="rgb(253,254,253)" stroke-width="1" opacity="1" d="M 37.5 90 L 38 92.5 L 37 92.5 L 37.5 90 Z " /><path fill="rgb(253,254,253)" stroke="rgb(253,254,253)" stroke-width="1" opacity="1" d="M 76.5 92 L 77 95.5 L 76 95.5 L 76.5 92 Z " /><path fill="rgb(253,254,253)" stroke="rgb(253,254,253)" stroke-width="1" opacity="1" d="M 37.5 96 L 38 98.5 L 37 98.5 L 37.5 96 Z " /><path fill="rgb(253,254,253)" stroke="rgb(253,254,253)" stroke-width="1" opacity="1" d="M 169.5 96 L 168.5 98 L 169.5 96 Z " /><path fill="rgb(253,254,253)" stroke="rgb(253,254,253)" stroke-width="1" opacity="1" d="M 192.5 96 L 191.5 98 L 192.5 96 Z " /><path fill="rgb(253,254,253)" stroke="rgb(253,254,253)" stroke-width="1" opacity="1" d="M 189.5 99 L 186.5 103 L 189.5 99 Z " /><path fill="rgb(253,254,253)" stroke="rgb(253,254,253)" stroke-width="1" opacity="1" d="M 76.5 100 L 77 102.5 L 76 102.5 L 76.5 100 Z " /><path fill="rgb(253,254,253)" stroke="rgb(253,254,253)" stroke-width="1" opacity="1" d="M 164.5 100 L 162.5 103 L 157.5 107 L 161.5 102 L 164.5 100 Z " /><path fill="rgb(253,254,253)" stroke="rgb(253,254,253)" stroke-width="1" opacity="1" d="M 155.5 107 L 154.5 109 L 148.5 113 L 150.5 110 L 155.5 107 Z " /><path fill="rgb(253,254,253)" stroke="rgb(253,254,253)" stroke-width="1" opacity="1" d="M 128.5 109 L 128 110.5 L 123 117.5 L 123.5 119 L 121 118.5 L 128.5 109 Z " /><path fill="rgb(253,254,253)" stroke="rgb(253,254,253)" stroke-width="1" opacity="1" d="M 79.5 110 L 81 112.5 L 79 111.5 L 79.5 110 Z " /><path fill="rgb(253,254,253)" stroke="rgb(253,254,253)" stroke-width="1" opacity="1" d="M 145 113 L 147 113.5 L 145 114.5 L 145 113 Z " /><path fill="rgb(253,254,253)" stroke="rgb(253,254,253)" stroke-width="1" opacity="1" d="M 82.5 115 L 89 120.5 L 87.5 120 L 82.5 115 Z " /><path fill="rgb(253,254,253)" stroke="rgb(253,254,253)" stroke-width="1" opacity="1" d="M 141.5 116 L 140.5 118 L 136.5 120 L 136 118 L 141.5 116 Z " /><path fill="rgb(253,254,253)" stroke="rgb(253,254,253)" stroke-width="1" opacity="1" d="M 133.5 120 L 135 120.5 L 129.5 123 L 129.5 122 L 133.5 120 Z " /><path fill="rgb(253,254,253)" stroke="rgb(253,254,253)" stroke-width="1" opacity="1" d="M 91.5 122 L 92.5 124 L 91.5 122 Z " /><path fill="rgb(253,254,253)" stroke="rgb(253,254,253)" stroke-width="1" opacity="1" d="M 127.5 123 L 125.5 126 L 120.5 128 L 121.5 126 L 127.5 123 Z " /><path fill="rgb(253,254,253)" stroke="rgb(253,254,253)" stroke-width="1" opacity="1" d="M 158.5 123 L 159 124.5 L 157.5 127 L 157 125.5 L 158.5 123 Z " /><path fill="rgb(253,254,253)" stroke="rgb(253,254,253)" stroke-width="1" opacity="1" d="M 156.5 128 L 156 129.5 L 155.5 131 L 155 129.5 L 156.5 128 Z " /><path fill="rgb(253,254,253)" stroke="rgb(253,254,253)" stroke-width="1" opacity="1" d="M 115.5 129 L 117 129.5 L 113.5 131 L 113.5 130 L 115.5 129 Z " /><path fill="rgb(253,254,253)" stroke="rgb(253,254,253)" stroke-width="1" opacity="1" d="M 169.5 130 L 169 131.5 L 167.5 134 L 168 132.5 L 169.5 130 Z " /><path fill="rgb(253,254,253)" stroke="rgb(253,254,253)" stroke-width="1" opacity="1" d="M 154.5 132 L 153.5 134 L 154.5 132 Z " /><path fill="rgb(253,254,253)" stroke="rgb(253,254,253)" stroke-width="1" opacity="1" d="M 152.5 135 L 151 137.5 L 147.5 142 L 150 138.5 L 152.5 135 Z " /><path fill="rgb(253,254,253)" stroke="rgb(253,254,253)" stroke-width="1" opacity="1" d="M 165.5 136 L 164.5 138 L 165.5 136 Z " /><path fill="rgb(253,254,253)" stroke="rgb(253,254,253)" stroke-width="1" opacity="1" d="M 162.5 140 L 158.5 145 L 162.5 140 Z " /><path fill="rgb(253,254,253)" stroke="rgb(253,254,253)" stroke-width="1" opacity="1" d="M 145 143 L 147 143.5 L 145 144.5 L 145 143 Z " /><path fill="rgb(253,254,253)" stroke="rgb(253,254,253)" stroke-width="1" opacity="1" d="M 142.5 146 L 143 148 L 141 147.5 L 142.5 146 Z " /><path fill="rgb(253,254,253)" stroke="rgb(253,254,253)" stroke-width="1" opacity="1" d="M 156.5 146 L 155.5 148 L 156.5 146 Z " /><path fill="rgb(253,254,253)" stroke="rgb(253,254,253)" stroke-width="1" opacity="1" d="M 129 155 L 132 155.5 L 129.5 157 L 129 155 Z " /><path fill="rgb(253,254,253)" stroke="rgb(253,254,253)" stroke-width="1" opacity="1" d="M 119.5 160 L 122 160.5 L 119.5 161 L 119.5 160 Z " /><path fill="rgb(253,254,253)" stroke="rgb(253,254,253)" stroke-width="1" opacity="1" d="M 110.5 162 L 114 162.5 L 108.5 164 L 108.5 163 L 110.5 162 Z " /><path fill="rgb(253,254,253)" stroke="rgb(253,254,253)" stroke-width="1" opacity="1" d="M 118.5 164 L 121 164.5 L 118.5 165 L 118.5 164 Z " /><path fill="rgb(254,254,254)" stroke="rgb(254,254,254)" stroke-width="1" opacity="1" d="M 127.5 26 L 128.5 28 L 127.5 26 Z " /><path fill="rgb(254,254,254)" stroke="rgb(254,254,254)" stroke-width="1" opacity="1" d="M 144.5 28 L 144 29.5 L 145 34.5 L 143 33.5 L 144 31.5 L 142 31.5 L 144.5 28 Z " /><path fill="rgb(254,254,254)" stroke="rgb(254,254,254)" stroke-width="1" opacity="1" d="M 134.5 29 L 138.5 30 L 141 29 L 140.5 31 L 138.5 31 L 134.5 30 L 134.5 29 Z " /><path fill="rgb(254,254,254)" stroke="rgb(254,254,254)" stroke-width="1" opacity="1" d="M 68.5 34 L 71 34.5 L 68.5 35 L 68.5 34 Z " /><path fill="rgb(254,254,254)" stroke="rgb(254,254,254)" stroke-width="1" opacity="1" d="M 146.5 34 L 148.5 35 L 150.5 34 L 150 35.5 L 149.5 37 L 146 36 L 146.5 34 Z " /><path fill="rgb(254,254,254)" stroke="rgb(254,254,254)" stroke-width="1" opacity="1" d="M 217.5 35 L 218 37 L 216 36.5 L 217.5 35 Z " /><path fill="rgb(254,254,254)" stroke="rgb(254,254,254)" stroke-width="1" opacity="1" d="M 153.5 36 L 153 37.5 L 152.5 40 L 151 37 L 153.5 36 Z " /><path fill="rgb(254,254,254)" stroke="rgb(254,254,254)" stroke-width="1" opacity="1" d="M 156.5 37 L 157 40 L 155 39.5 L 156.5 37 Z " /><path fill="rgb(254,254,254)" stroke="rgb(254,254,254)" stroke-width="1" opacity="1" d="M 62.5 38 L 65 38.5 L 62 40.5 L 62.5 38 Z " /><path fill="rgb(254,254,254)" stroke="rgb(254,254,254)" stroke-width="1" opacity="1" d="M 159 42 Q 162.3 40.7 161 45.5 L 159.5 45 L 157 43.5 L 159 43.5 L 159 42 Z " /><path fill="rgb(254,254,254)" stroke="rgb(254,254,254)" stroke-width="1" opacity="1" d="M 57.5 44 L 55 47.5 Q 55.8 49.8 53.5 49 L 52.5 47 L 53.5 48 L 57.5 44 Z " /><path fill="rgb(254,254,254)" stroke="rgb(254,254,254)" stroke-width="1" opacity="1" d="M 162.5 44 L 163.5 46 Q 160.7 46.7 162.5 44 Z " /><path fill="rgb(254,254,254)" stroke="rgb(254,254,254)" stroke-width="1" opacity="1" d="M 212.5 44 L 213 45.5 L 211 46.5 L 212.5 44 Z " /><path fill="rgb(254,254,254)" stroke="rgb(254,254,254)" stroke-width="1" opacity="1" d="M 165.5 47 L 167 49.5 L 164.5 51 L 163.5 49 L 165 49.5 L 165.5 47 Z " /><path fill="rgb(254,254,254)" stroke="rgb(254,254,254)" stroke-width="1" opacity="1" d="M 135.5 49 L 136.5 51 L 135.5 49 Z " /><path fill="rgb(254,254,254)" stroke="rgb(254,254,254)" stroke-width="1" opacity="1" d="M 52.5 50 L 51.5 52 L 52.5 50 Z " /><path fill="rgb(254,254,254)" stroke="rgb(254,254,254)" stroke-width="1" opacity="1" d="M 207.5 50 L 210 50.5 L 206.5 55 L 205.5 53 L 207 53.5 L 208 51.5 L 207.5 50 Z " /><path fill="rgb(254,254,254)" stroke="rgb(254,254,254)" stroke-width="1" opacity="1" d="M 64.5 51 L 63.5 53 L 64.5 51 Z " /><path fill="rgb(254,254,254)" stroke="rgb(254,254,254)" stroke-width="1" opacity="1" d="M 138.5 52 L 140.5 55 L 138.5 52 Z " /><path fill="rgb(254,254,254)" stroke="rgb(254,254,254)" stroke-width="1" opacity="1" d="M 166.5 53 L 168 55.5 L 167 55.5 L 166.5 53 Z " /><path fill="rgb(254,254,254)" stroke="rgb(254,254,254)" stroke-width="1" opacity="1" d="M 49.5 54 L 48.5 56 L 49.5 54 Z " /><path fill="rgb(254,254,254)" stroke="rgb(254,254,254)" stroke-width="1" opacity="1" d="M 60.5 54 L 56.5 59 L 60.5 54 Z " /><path fill="rgb(254,254,254)" stroke="rgb(254,254,254)" stroke-width="1" opacity="1" d="M 142.5 56 L 145 57.5 L 143.5 57 L 142.5 56 Z " /><path fill="rgb(254,254,254)" stroke="rgb(254,254,254)" stroke-width="1" opacity="1" d="M 205.5 56 L 204.5 58 L 205.5 56 Z " /><path fill="rgb(254,254,254)" stroke="rgb(254,254,254)" stroke-width="1" opacity="1" d="M 169.5 57 Q 172.5 56.1 171 60.5 L 175 66.5 L 173 67 L 169.5 57 Z " /><path fill="rgb(254,254,254)" stroke="rgb(254,254,254)" stroke-width="1" opacity="1" d="M 46.5 58 L 47 60 L 45 59.5 L 46.5 58 Z " /><path fill="rgb(254,254,254)" stroke="rgb(254,254,254)" stroke-width="1" opacity="1" d="M 147.5 61 L 149.5 64 L 147.5 61 Z " /><path fill="rgb(254,254,254)" stroke="rgb(254,254,254)" stroke-width="1" opacity="1" d="M 199.5 63 L 200 64.5 L 198 65.5 L 199.5 63 Z " /><path fill="rgb(254,254,254)" stroke="rgb(254,254,254)" stroke-width="1" opacity="1" d="M 149.5 65 L 153 67.5 L 150.5 66 L 149.5 65 Z " /><path fill="rgb(254,254,254)" stroke="rgb(254,254,254)" stroke-width="1" opacity="1" d="M 215.5 65 L 216 67 L 214 66.5 L 215.5 65 Z " /><path fill="rgb(254,254,254)" stroke="rgb(254,254,254)" stroke-width="1" opacity="1" d="M 41.5 67 L 42 69.5 L 40.5 73 L 40 70.5 L 41.5 67 Z " /><path fill="rgb(254,254,254)" stroke="rgb(254,254,254)" stroke-width="1" opacity="1" d="M 48.5 68 L 49 69.5 L 47 70.5 L 48.5 68 Z " /><path fill="rgb(254,254,254)" stroke="rgb(254,254,254)" stroke-width="1" opacity="1" d="M 110.5 68 L 113.5 72 L 114 70 L 116 70.5 Q 114 75 112 71.5 L 110.5 68 Z " /><path fill="rgb(254,254,254)" stroke="rgb(254,254,254)" stroke-width="1" opacity="1" d="M 97.5 70 L 96.5 72 L 94 71.5 L 97.5 70 Z " /><path fill="rgb(254,254,254)" stroke="rgb(254,254,254)" stroke-width="1" opacity="1" d="M 104.5 70 Q 109.8 68.8 111 71.5 L 109.5 71 Q 103.5 72.3 104.5 70 Z " /><path fill="rgb(254,254,254)" stroke="rgb(254,254,254)" stroke-width="1" opacity="1" d="M 117 70 Q 120.3 68.7 119 73.5 L 120.5 73 L 122 73.5 L 119.5 75 L 116 73.5 L 117 70 Z " /><path fill="rgb(254,254,254)" stroke="rgb(254,254,254)" stroke-width="1" opacity="1" d="M 176.5 71 L 178.5 77 L 179.5 74 Q 182.5 75.5 181 81.5 Q 179.5 84.5 178 81.5 L 179 78.5 L 177 78.5 L 176.5 71 Z " /><path fill="rgb(254,254,254)" stroke="rgb(254,254,254)" stroke-width="1" opacity="1" d="M 191.5 72 Q 194.2 73.3 192 74.5 Q 192.8 76.8 190.5 76 L 191.5 72 Z " /><path fill="rgb(254,254,254)" stroke="rgb(254,254,254)" stroke-width="1" opacity="1" d="M 123.5 73 L 126 76.5 L 124.5 79 L 124 77.5 L 124 75.5 L 123.5 73 Z " /><path fill="rgb(254,254,254)" stroke="rgb(254,254,254)" stroke-width="1" opacity="1" d="M 121.5 75 L 123 77.5 L 122 77.5 L 121.5 75 Z " /><path fill="rgb(254,254,254)" stroke="rgb(254,254,254)" stroke-width="1" opacity="1" d="M 182.5 75 L 183 84 L 181 83.5 L 182.5 75 Z " /><path fill="rgb(254,254,254)" stroke="rgb(254,254,254)" stroke-width="1" opacity="1" d="M 127.5 76 L 128 80 L 125.5 81 L 127 78.5 L 127.5 76 Z " /><path fill="rgb(254,254,254)" stroke="rgb(254,254,254)" stroke-width="1" opacity="1" d="M 184 80 L 186 80.5 L 184 81.5 L 184 80 Z " /><path fill="rgb(254,254,254)" stroke="rgb(254,254,254)" stroke-width="1" opacity="1" d="M 81.5 81 L 78.5 85 L 81.5 81 Z " /><path fill="rgb(254,254,254)" stroke="rgb(254,254,254)" stroke-width="1" opacity="1" d="M 130.5 81 L 132 84.5 L 130 85.5 L 131 83.5 L 130.5 81 Z " /><path fill="rgb(254,254,254)" stroke="rgb(254,254,254)" stroke-width="1" opacity="1" d="M 158.5 81 L 160 83.5 L 159 83.5 L 158.5 81 Z " /><path fill="rgb(254,254,254)" stroke="rgb(254,254,254)" stroke-width="1" opacity="1" d="M 175.5 81 L 177 83.5 L 176 83.5 L 175.5 82 L 173 83.5 L 175.5 81 Z " /><path fill="rgb(254,254,254)" stroke="rgb(254,254,254)" stroke-width="1" opacity="1" d="M 127.5 82 L 128.5 84 L 127.5 82 Z " /><path fill="rgb(254,254,254)" stroke="rgb(254,254,254)" stroke-width="1" opacity="1" d="M 159.5 85 L 160.5 87 L 159.5 85 Z " /><path fill="rgb(254,254,254)" stroke="rgb(254,254,254)" stroke-width="1" opacity="1" d="M 175.5 85 L 178 85.5 L 175.5 86 L 175.5 85 Z " /><path fill="rgb(254,254,254)" stroke="rgb(254,254,254)" stroke-width="1" opacity="1" d="M 181.5 85 L 179.5 88 L 178 87.5 L 181.5 85 Z " /><path fill="rgb(254,254,254)" stroke="rgb(254,254,254)" stroke-width="1" opacity="1" d="M 37.5 86 L 36.5 88 L 37.5 86 Z " /><path fill="rgb(254,254,254)" stroke="rgb(254,254,254)" stroke-width="1" opacity="1" d="M 170.5 86 L 170 87.5 Q 170.8 89.8 168.5 89 L 170.5 86 Z " /><path fill="rgb(254,254,254)" stroke="rgb(254,254,254)" stroke-width="1" opacity="1" d="M 202.5 86 L 201.5 88 L 202.5 86 Z " /><path fill="rgb(254,254,254)" stroke="rgb(254,254,254)" stroke-width="1" opacity="1" d="M 158.5 104 L 156.5 107 L 155.5 105 Q 157 107.5 158.5 104 Z " /><path fill="rgb(254,254,254)" stroke="rgb(254,254,254)" stroke-width="1" opacity="1" d="M 128.5 111 L 129 113.5 L 128.5 118 L 126 117 L 124.5 123 L 122.5 123 L 120 120.5 L 120.5 119 L 121 121 Q 125.5 122.8 124 117.5 L 128.5 111 Z " /><path fill="rgb(254,254,254)" stroke="rgb(254,254,254)" stroke-width="1" opacity="1" d="M 130.5 112 L 132 115.5 L 131 117.5 L 133 121 L 130.5 122 L 130 120.5 L 130 118.5 L 130.5 112 Z " /><path fill="rgb(254,254,254)" stroke="rgb(254,254,254)" stroke-width="1" opacity="1" d="M 176.5 117 L 175.5 119 L 176.5 117 Z " /><path fill="rgb(254,254,254)" stroke="rgb(254,254,254)" stroke-width="1" opacity="1" d="M 127.5 120 L 128.5 122 L 126 121.5 L 127.5 120 Z " /><path fill="rgb(254,254,254)" stroke="rgb(254,254,254)" stroke-width="1" opacity="1" d="M 148.5 123 L 147.5 125 L 146 124.5 L 148.5 123 Z " /><path fill="rgb(254,254,254)" stroke="rgb(254,254,254)" stroke-width="1" opacity="1" d="M 173.5 123 L 174 124.5 L 172.5 127 L 172 125.5 L 173.5 123 Z " /><path fill="rgb(254,254,254)" stroke="rgb(254,254,254)" stroke-width="1" opacity="1" d="M 149 125 Q 152 123.8 151 127.5 L 149 126.5 L 149 125 Z " /><path fill="rgb(254,254,254)" stroke="rgb(254,254,254)" stroke-width="1" opacity="1" d="M 155.5 125 L 157 127.5 L 156 127.5 L 155.5 125 Z " /><path fill="rgb(254,254,254)" stroke="rgb(254,254,254)" stroke-width="1" opacity="1" d="M 113.5 131 L 118 133.5 L 116.5 133 Q 112.7 133.5 113.5 131 Z " /><path fill="rgb(254,254,254)" stroke="rgb(254,254,254)" stroke-width="1" opacity="1" d="M 154.5 131 L 153 133.5 L 152.5 135 L 152 133.5 L 154.5 131 Z " /><path fill="rgb(254,254,254)" stroke="rgb(254,254,254)" stroke-width="1" opacity="1" d="M 167.5 134 L 168 135.5 L 166 136.5 L 167.5 134 Z " /><path fill="rgb(254,254,254)" stroke="rgb(254,254,254)" stroke-width="1" opacity="1" d="M 164.5 138 L 163.5 140 L 164.5 138 Z " /><path fill="rgb(254,254,254)" stroke="rgb(254,254,254)" stroke-width="1" opacity="1" d="M 160.5 143 L 158.5 146 L 160.5 143 Z " /><path fill="rgb(254,254,254)" stroke="rgb(254,254,254)" stroke-width="1" opacity="1" d="M 143 144 L 145 144.5 L 143 145.5 L 143 144 Z " /><path fill="rgb(254,254,254)" stroke="rgb(254,254,254)" stroke-width="1" opacity="1" d="M 140.5 148 L 139.5 150 L 140.5 148 Z " /><path fill="rgb(254,254,254)" stroke="rgb(254,254,254)" stroke-width="1" opacity="1" d="M 154.5 148 L 151.5 152 L 154.5 148 Z " /><path fill="rgb(254,254,254)" stroke="rgb(254,254,254)" stroke-width="1" opacity="1" d="M 149.5 152 L 148.5 154 L 149.5 152 Z " /><path fill="rgb(254,254,254)" stroke="rgb(254,254,254)" stroke-width="1" opacity="1" d="M 123.5 158 L 126 158.5 L 123.5 159 L 123.5 158 Z " /><path fill="rgb(255,255,255)" stroke="rgb(255,255,255)" stroke-width="1" opacity="1" d="M 0 0 L 248 0 L 248 177 L 0 177 L 0 0 Z M 111 24 L 110 25 L 97 25 L 79 30 L 72 34 L 69 34 L 69 36 L 60 42 L 45 60 L 41 68 L 37 82 L 38 86 L 38 88 L 37 90 L 37 99 L 39 100 Q 38 88 43 82 Q 41 76 45 77 Q 44 71 49 70 Q 48 66 51 67 Q 50 64 53 63 Q 52 60 55 61 L 55 59 L 57 59 L 61 54 Q 63 49 65 52 L 65 51 Q 72 45 82 42 L 83 43 L 86 40 L 87 41 L 91 39 Q 95 38 97 40 L 98 39 L 109 39 L 111 39 L 114 40 L 116 40 L 118 42 L 124 43 L 134 48 L 133 50 L 138 51 L 141 55 Q 143 54 142 57 L 145 59 L 147 62 L 150 65 L 149 66 L 151 66 Q 156 71 158 80 L 158 82 L 159 84 L 159 86 Q 158 88 161 87 L 161 92 L 165 92 Q 166 88 170 89 L 171 87 Q 170 84 173 85 L 179 78 L 180 81 L 179 80 L 178 82 Q 180 85 181 82 Q 182 75 180 74 L 179 77 L 177 71 L 174 70 L 175 67 L 171 61 L 171 57 L 169 58 L 168 55 L 163 48 L 162 48 L 161 42 Q 158 41 159 44 L 158 43 Q 155 44 156 41 L 153 40 L 153 37 Q 149 38 150 36 L 151 34 L 148 35 L 146 35 L 144 29 L 143 31 L 141 32 Q 142 28 140 29 L 140 31 L 138 29 L 130 28 Q 128 24 127 27 L 126 25 L 125 27 L 123 25 L 122 26 L 117 24 L 114 25 L 111 24 Z M 220 31 L 212 46 Q 208 47 211 49 Q 205 53 203 61 L 199 63 L 197 70 L 194 72 Q 195 74 193 73 L 189 78 Q 186 77 187 80 L 184 80 L 184 83 L 183 75 L 182 83 L 182 85 L 180 87 Q 177 86 178 89 Q 176 93 175 90 L 173 94 Q 170 93 171 96 L 169 97 Q 166 96 167 99 L 163 101 L 148 113 Q 144 112 145 115 L 143 115 L 135 120 L 131 118 L 132 114 L 130 113 Q 129 118 131 120 L 129 123 Q 125 122 126 125 L 123 125 Q 119 130 113 130 L 115 133 L 145 125 L 147 125 L 159 119 L 160 120 L 151 137 Q 148 136 149 140 L 143 144 L 139 151 L 132 155 Q 128 154 129 157 L 127 158 Q 122 156 123 160 L 122 159 L 116 162 L 111 162 L 104 165 L 107 166 L 110 165 L 112 165 L 116 166 L 118 166 L 122 164 L 124 165 L 142 158 L 156 148 L 159 146 L 165 139 Q 164 136 167 137 L 171 130 Q 170 126 173 127 L 174 121 L 177 118 L 176 117 L 177 110 L 197 94 L 213 72 Q 212 68 215 69 L 214 68 L 216 67 L 215 65 L 217 64 L 217 60 L 221 47 L 222 32 L 220 31 Z M 157 37 L 155 40 L 157 40 L 157 37 Z M 163 44 Q 161 47 164 46 L 163 44 Z M 166 47 Q 163 49 166 50 L 167 50 L 166 47 Z M 110 68 L 110 70 L 104 71 L 100 70 L 97 71 Q 93 70 94 73 Q 89 72 87 76 Q 84 75 85 78 L 78 85 L 79 86 L 75 96 L 76 97 L 77 108 L 80 115 L 82 115 L 82 117 Q 85 116 84 119 L 91 122 Q 92 125 94 123 L 98 125 Q 104 123 106 126 L 119 121 L 121 121 L 125 116 L 123 119 L 124 121 L 121 122 L 125 123 L 126 117 L 129 118 L 129 114 L 128 111 L 130 107 L 130 99 L 131 98 Q 129 96 130 92 L 130 88 L 128 85 L 130 84 L 131 86 L 132 83 Q 130 79 129 83 L 127 82 L 128 80 L 128 76 L 127 79 L 125 80 L 126 77 L 124 73 L 123 76 L 121 75 Q 118 74 119 70 Q 116 69 117 73 L 115 73 L 116 71 L 115 70 Q 113 72 112 70 Q 113 67 110 68 Z M 177 82 L 175 84 L 177 84 L 177 82 Z M 176 85 L 176 86 L 178 86 L 176 85 Z M 149 125 L 149 127 L 151 128 Q 152 124 149 125 Z " /><path fill="rgb(255,255,255)" stroke="rgb(255,255,255)" stroke-width="1" opacity="1" d="M 127.5 114 L 126.5 116 L 127.5 114 Z " /><path fill="rgb(250,234,161)" stroke="rgb(250,234,161)" stroke-width="1" opacity="1" d="M 106.5 25 L 109 25.5 L 106.5 26 L 106.5 25 Z " /><path fill="rgb(250,234,161)" stroke="rgb(250,234,161)" stroke-width="1" opacity="1" d="M 96.5 26 L 99 26.5 L 96.5 27 L 96.5 26 Z " /><path fill="rgb(250,234,161)" stroke="rgb(250,234,161)" stroke-width="1" opacity="1" d="M 116.5 26 L 119 26.5 L 116.5 27 L 116.5 26 Z " /><path fill="rgb(250,234,161)" stroke="rgb(250,234,161)" stroke-width="1" opacity="1" d="M 91.5 27 L 94 27.5 L 91.5 28 L 91.5 27 Z " /><path fill="rgb(250,234,161)" stroke="rgb(250,234,161)" stroke-width="1" opacity="1" d="M 87.5 28 L 90 28.5 L 87.5 29 L 87.5 28 Z " /><path fill="rgb(250,234,161)" stroke="rgb(250,234,161)" stroke-width="1" opacity="1" d="M 126.5 28 L 129 28.5 L 126.5 29 L 126.5 28 Z " /><path fill="rgb(250,234,161)" stroke="rgb(250,234,161)" stroke-width="1" opacity="1" d="M 220.5 33 L 221 42.5 L 220 42.5 L 219.5 36 L 217.5 39 L 218 37.5 L 220.5 33 Z " /><path fill="rgb(250,234,161)" stroke="rgb(250,234,161)" stroke-width="1" opacity="1" d="M 142.5 34 L 143.5 36 L 142.5 34 Z " /><path fill="rgb(250,234,161)" stroke="rgb(250,234,161)" stroke-width="1" opacity="1" d="M 145.5 36 L 150 39.5 L 147.5 38 L 145.5 36 Z " /><path fill="rgb(250,234,161)" stroke="rgb(250,234,161)" stroke-width="1" opacity="1" d="M 68.5 37 L 67.5 39 L 68.5 37 Z " /><path fill="rgb(250,234,161)" stroke="rgb(250,234,161)" stroke-width="1" opacity="1" d="M 96.5 37 L 106 37.5 L 96.5 38 L 96.5 37 Z " /><path fill="rgb(250,234,161)" stroke="rgb(250,234,161)" stroke-width="1" opacity="1" d="M 89.5 38 L 93 38.5 L 89.5 39 L 89.5 38 Z " /><path fill="rgb(250,234,161)" stroke="rgb(250,234,161)" stroke-width="1" opacity="1" d="M 109.5 38 L 113 38.5 L 109.5 39 L 109.5 38 Z " /><path fill="rgb(250,234,161)" stroke="rgb(250,234,161)" stroke-width="1" opacity="1" d="M 65.5 39 L 63.5 42 L 65.5 39 Z " /><path fill="rgb(250,234,161)" stroke="rgb(250,234,161)" stroke-width="1" opacity="1" d="M 151.5 40 L 153.5 43 L 151.5 40 Z " /><path fill="rgb(250,234,161)" stroke="rgb(250,234,161)" stroke-width="1" opacity="1" d="M 59.5 44 L 56.5 48 L 59.5 44 Z " /><path fill="rgb(250,234,161)" stroke="rgb(250,234,161)" stroke-width="1" opacity="1" d="M 129.5 44 L 133 46.5 L 131.5 46 L 129.5 44 Z " /><path fill="rgb(250,234,161)" stroke="rgb(250,234,161)" stroke-width="1" opacity="1" d="M 70.5 45 L 69.5 47 L 67.5 48 L 68.5 46 L 70.5 45 Z " /><path fill="rgb(250,234,161)" stroke="rgb(250,234,161)" stroke-width="1" opacity="1" d="M 219.5 45 L 220 48.5 L 219 48.5 L 219.5 45 Z " /><path fill="rgb(250,234,161)" stroke="rgb(250,234,161)" stroke-width="1" opacity="1" d="M 213.5 46 L 212.5 48 L 213.5 46 Z " /><path fill="rgb(250,234,161)" stroke="rgb(250,234,161)" stroke-width="1" opacity="1" d="M 134.5 47 L 135.5 49 L 134.5 47 Z " /><path fill="rgb(250,234,161)" stroke="rgb(250,234,161)" stroke-width="1" opacity="1" d="M 65.5 48 L 63.5 51 L 65.5 48 Z " /><path fill="rgb(250,234,161)" stroke="rgb(250,234,161)" stroke-width="1" opacity="1" d="M 137.5 49 L 138.5 51 L 137.5 49 Z " /><path fill="rgb(250,234,161)" stroke="rgb(250,234,161)" stroke-width="1" opacity="1" d="M 160.5 49 L 164.5 54 L 160.5 49 Z " /><path fill="rgb(250,234,161)" stroke="rgb(250,234,161)" stroke-width="1" opacity="1" d="M 53.5 51 L 51.5 54 L 53.5 51 Z " /><path fill="rgb(250,234,161)" stroke="rgb(250,234,161)" stroke-width="1" opacity="1" d="M 61.5 51 L 52.5 61 L 61.5 51 Z " /><path fill="rgb(250,234,161)" stroke="rgb(250,234,161)" stroke-width="1" opacity="1" d="M 141.5 52 L 148.5 60 L 141.5 52 Z " /><path fill="rgb(250,234,161)" stroke="rgb(250,234,161)" stroke-width="1" opacity="1" d="M 208.5 54 L 208 55.5 L 206.5 58 L 207 56.5 L 208.5 54 Z " /><path fill="rgb(250,234,161)" stroke="rgb(250,234,161)" stroke-width="1" opacity="1" d="M 165.5 55 L 166.5 57 L 165.5 55 Z " /><path fill="rgb(250,234,161)" stroke="rgb(250,234,161)" stroke-width="1" opacity="1" d="M 49.5 56 L 49 57.5 L 47.5 60 L 48 58.5 L 49.5 56 Z " /><path fill="rgb(250,234,161)" stroke="rgb(250,234,161)" stroke-width="1" opacity="1" d="M 167.5 58 L 168.5 60 L 167.5 58 Z " /><path fill="rgb(250,234,161)" stroke="rgb(250,234,161)" stroke-width="1" opacity="1" d="M 204.5 60 L 203.5 62 L 204.5 60 Z " /><path fill="rgb(250,234,161)" stroke="rgb(250,234,161)" stroke-width="1" opacity="1" d="M 46.5 61 L 46 62.5 L 44.5 66 L 44 64.5 L 46.5 61 Z " /><path fill="rgb(250,234,161)" stroke="rgb(250,234,161)" stroke-width="1" opacity="1" d="M 149.5 61 L 154 66.5 L 152 65.5 L 149.5 61 Z " /><path fill="rgb(250,234,161)" stroke="rgb(250,234,161)" stroke-width="1" opacity="1" d="M 50.5 63 L 49.5 65 L 50.5 63 Z " /><path fill="rgb(250,234,161)" stroke="rgb(250,234,161)" stroke-width="1" opacity="1" d="M 202.5 63 L 200.5 66 L 202.5 63 Z " /><path fill="rgb(250,234,161)" stroke="rgb(250,234,161)" stroke-width="1" opacity="1" d="M 48.5 66 L 47.5 68 L 48.5 66 Z " /><path fill="rgb(250,234,161)" stroke="rgb(250,234,161)" stroke-width="1" opacity="1" d="M 199.5 67 L 197.5 70 L 199.5 67 Z " /><path fill="rgb(250,234,161)" stroke="rgb(250,234,161)" stroke-width="1" opacity="1" d="M 154.5 68 L 155.5 70 L 154.5 68 Z " /><path fill="rgb(250,234,161)" stroke="rgb(250,234,161)" stroke-width="1" opacity="1" d="M 45.5 71 L 45 72.5 L 44.5 74 L 44 72.5 L 45.5 71 Z " /><path fill="rgb(250,234,161)" stroke="rgb(250,234,161)" stroke-width="1" opacity="1" d="M 100.5 71 L 107 71.5 L 100.5 72 L 100.5 71 Z " /><path fill="rgb(250,234,161)" stroke="rgb(250,234,161)" stroke-width="1" opacity="1" d="M 195.5 72 L 191.5 77 L 195.5 72 Z " /><path fill="rgb(250,234,161)" stroke="rgb(250,234,161)" stroke-width="1" opacity="1" d="M 157.5 73 L 159 76.5 L 158 76.5 L 157.5 73 Z " /><path fill="rgb(250,234,161)" stroke="rgb(250,234,161)" stroke-width="1" opacity="1" d="M 40.5 74 L 41 76.5 L 40 76.5 L 40.5 74 Z " /><path fill="rgb(250,234,161)" stroke="rgb(250,234,161)" stroke-width="1" opacity="1" d="M 209.5 74 L 208.5 76 L 209.5 74 Z " /><path fill="rgb(250,234,161)" stroke="rgb(250,234,161)" stroke-width="1" opacity="1" d="M 89.5 75 L 88.5 77 L 89.5 75 Z " /><path fill="rgb(250,234,161)" stroke="rgb(250,234,161)" stroke-width="1" opacity="1" d="M 120.5 77 L 124.5 82 L 120.5 77 Z " /><path fill="rgb(250,234,161)" stroke="rgb(250,234,161)" stroke-width="1" opacity="1" d="M 39.5 78 L 40 80.5 L 39 80.5 L 39.5 78 Z " /><path fill="rgb(250,234,161)" stroke="rgb(250,234,161)" stroke-width="1" opacity="1" d="M 175.5 79 L 166.5 89 L 175.5 79 Z " /><path fill="rgb(250,234,161)" stroke="rgb(250,234,161)" stroke-width="1" opacity="1" d="M 189.5 79 L 177.5 92 L 189.5 79 Z " /><path fill="rgb(250,234,161)" stroke="rgb(250,234,161)" stroke-width="1" opacity="1" d="M 206.5 79 L 205.5 81 L 206.5 79 Z " /><path fill="rgb(250,234,161)" stroke="rgb(250,234,161)" stroke-width="1" opacity="1" d="M 40.5 82 L 41 84.5 L 40 84.5 L 40.5 82 Z " /><path fill="rgb(250,234,161)" stroke="rgb(250,234,161)" stroke-width="1" opacity="1" d="M 82.5 82 L 81.5 84 L 82.5 82 Z " /><path fill="rgb(250,234,161)" stroke="rgb(250,234,161)" stroke-width="1" opacity="1" d="M 125.5 83 L 126.5 85 L 125.5 83 Z " /><path fill="rgb(250,234,161)" stroke="rgb(250,234,161)" stroke-width="1" opacity="1" d="M 203.5 83 L 201.5 86 L 203.5 83 Z " /><path fill="rgb(250,234,161)" stroke="rgb(250,234,161)" stroke-width="1" opacity="1" d="M 38.5 84 L 40 89 Q 35.9 90.2 38.5 84 Z " /><path fill="rgb(250,234,161)" stroke="rgb(250,234,161)" stroke-width="1" opacity="1" d="M 127.5 86 L 129 90.5 L 128 90.5 L 127.5 86 Z " /><path fill="rgb(250,234,161)" stroke="rgb(250,234,161)" stroke-width="1" opacity="1" d="M 162.5 88 L 164 90.5 L 162 89.5 L 162.5 88 Z " /><path fill="rgb(250,234,161)" stroke="rgb(250,234,161)" stroke-width="1" opacity="1" d="M 199.5 88 L 189.5 99 L 199.5 88 Z " /><path fill="rgb(250,234,161)" stroke="rgb(250,234,161)" stroke-width="1" opacity="1" d="M 38.5 92 L 39 95.5 L 38 95.5 L 38.5 92 Z " /><path fill="rgb(250,234,161)" stroke="rgb(250,234,161)" stroke-width="1" opacity="1" d="M 77.5 92 L 78 102.5 L 77 102.5 L 77.5 92 Z " /><path fill="rgb(250,234,161)" stroke="rgb(250,234,161)" stroke-width="1" opacity="1" d="M 129.5 92 L 130 94.5 L 129 94.5 L 129.5 92 Z " /><path fill="rgb(250,234,161)" stroke="rgb(250,234,161)" stroke-width="1" opacity="1" d="M 173.5 94 L 169.5 99 L 173.5 94 Z " /><path fill="rgb(250,234,161)" stroke="rgb(250,234,161)" stroke-width="1" opacity="1" d="M 167.5 99 L 164.5 103 L 167.5 99 Z " /><path fill="rgb(250,234,161)" stroke="rgb(250,234,161)" stroke-width="1" opacity="1" d="M 186.5 100 L 184.5 103 L 186.5 100 Z " /><path fill="rgb(250,234,161)" stroke="rgb(250,234,161)" stroke-width="1" opacity="1" d="M 162.5 103 L 160.5 106 L 162.5 103 Z " /><path fill="rgb(250,234,161)" stroke="rgb(250,234,161)" stroke-width="1" opacity="1" d="M 182.5 103 L 180.5 106 L 182.5 103 Z " /><path fill="rgb(250,234,161)" stroke="rgb(250,234,161)" stroke-width="1" opacity="1" d="M 178.5 106 L 177.5 108 L 178.5 106 Z " /><path fill="rgb(250,234,161)" stroke="rgb(250,234,161)" stroke-width="1" opacity="1" d="M 157.5 107 L 156.5 109 L 153.5 111 L 155.5 108 L 157.5 107 Z " /><path fill="rgb(250,234,161)" stroke="rgb(250,234,161)" stroke-width="1" opacity="1" d="M 80.5 110 L 84 114.5 L 81 112.5 L 80.5 110 Z " /><path fill="rgb(250,234,161)" stroke="rgb(250,234,161)" stroke-width="1" opacity="1" d="M 151.5 111 L 150.5 113 L 148.5 114 L 149.5 112 L 151.5 111 Z " /><path fill="rgb(250,234,161)" stroke="rgb(250,234,161)" stroke-width="1" opacity="1" d="M 125.5 112 L 124.5 114 L 125.5 112 Z " /><path fill="rgb(250,234,161)" stroke="rgb(250,234,161)" stroke-width="1" opacity="1" d="M 123.5 115 L 121.5 118 L 123.5 115 Z " /><path fill="rgb(250,234,161)" stroke="rgb(250,234,161)" stroke-width="1" opacity="1" d="M 86.5 117 L 88.5 120 L 86.5 117 Z " /><path fill="rgb(250,234,161)" stroke="rgb(250,234,161)" stroke-width="1" opacity="1" d="M 141.5 117 L 140.5 119 L 141.5 117 Z " /><path fill="rgb(250,234,161)" stroke="rgb(250,234,161)" stroke-width="1" opacity="1" d="M 159.5 117 Q 162.8 115.9 162 118.5 L 160.5 118 L 159.5 117 Z " /><path fill="rgb(250,234,161)" stroke="rgb(250,234,161)" stroke-width="1" opacity="1" d="M 118.5 119 L 117.5 121 L 114.5 122 L 114.5 121 L 118.5 119 Z " /><path fill="rgb(250,234,161)" stroke="rgb(250,234,161)" stroke-width="1" opacity="1" d="M 90.5 120 L 93 121.5 L 91.5 122 L 90.5 120 Z " /><path fill="rgb(250,234,161)" stroke="rgb(250,234,161)" stroke-width="1" opacity="1" d="M 152.5 120 L 154 120.5 L 150.5 122 L 150.5 121 L 152.5 120 Z " /><path fill="rgb(250,234,161)" stroke="rgb(250,234,161)" stroke-width="1" opacity="1" d="M 132.5 122 L 131.5 124 L 132.5 122 Z " /><path fill="rgb(250,234,161)" stroke="rgb(250,234,161)" stroke-width="1" opacity="1" d="M 128.5 124 L 130 124.5 L 126.5 126 L 126.5 125 L 128.5 124 Z " /><path fill="rgb(250,234,161)" stroke="rgb(250,234,161)" stroke-width="1" opacity="1" d="M 138.5 125 L 141 125.5 L 138.5 126 L 138.5 125 Z " /><path fill="rgb(250,234,161)" stroke="rgb(250,234,161)" stroke-width="1" opacity="1" d="M 124.5 126 L 123.5 128 L 124.5 126 Z " /><path fill="rgb(250,234,161)" stroke="rgb(250,234,161)" stroke-width="1" opacity="1" d="M 118.5 129 L 121 130.5 L 115.5 131 L 115.5 130 L 118.5 129 Z " /><path fill="rgb(250,234,161)" stroke="rgb(250,234,161)" stroke-width="1" opacity="1" d="M 123.5 129 L 126 129.5 L 123.5 130 L 123.5 129 Z " /><path fill="rgb(250,234,161)" stroke="rgb(250,234,161)" stroke-width="1" opacity="1" d="M 155.5 132 L 154.5 134 L 155.5 132 Z " /><path fill="rgb(250,234,161)" stroke="rgb(250,234,161)" stroke-width="1" opacity="1" d="M 166.5 133 L 166 134.5 L 162.5 139 L 165 135.5 L 166.5 133 Z " /><path fill="rgb(250,234,161)" stroke="rgb(250,234,161)" stroke-width="1" opacity="1" d="M 153.5 135 L 153 136.5 L 151.5 139 L 152 137.5 L 153.5 135 Z " /><path fill="rgb(250,234,161)" stroke="rgb(250,234,161)" stroke-width="1" opacity="1" d="M 161.5 140 L 155.5 147 L 161.5 140 Z " /><path fill="rgb(250,234,161)" stroke="rgb(250,234,161)" stroke-width="1" opacity="1" d="M 148.5 142 L 140.5 151 L 148.5 142 Z " /><path fill="rgb(250,234,161)" stroke="rgb(250,234,161)" stroke-width="1" opacity="1" d="M 151.5 149 L 149.5 152 L 151.5 149 Z " /><path fill="rgb(250,234,161)" stroke="rgb(250,234,161)" stroke-width="1" opacity="1" d="M 137.5 152 L 136.5 154 L 137.5 152 Z " /><path fill="rgb(250,234,161)" stroke="rgb(250,234,161)" stroke-width="1" opacity="1" d="M 147.5 152 L 146.5 154 L 147.5 152 Z " /><path fill="rgb(250,234,161)" stroke="rgb(250,234,161)" stroke-width="1" opacity="1" d="M 111 163 L 116 164.5 L 111 165 L 111 163 Z " /><path fill="rgb(250,234,161)" stroke="rgb(250,234,161)" stroke-width="1" opacity="1" d="M 120.5 163 L 123 163.5 L 120.5 164 L 120.5 163 Z " /><path fill="rgb(250,234,161)" stroke="rgb(250,234,161)" stroke-width="1" opacity="1" d="M 106.5 164 L 110 164.5 L 106.5 165 L 106.5 164 Z " /><path fill="rgb(250,202,5)" stroke="rgb(250,202,5)" stroke-width="1" opacity="1" d="M 99.5 26 L 115.5 26 L 132.5 30 Q 148.9 36.6 160 48.5 Q 171.4 60.1 176 78.5 L 164.5 90 L 163 90 Q 158.3 65.4 141.5 52 Q 126.1 37.4 96.5 37 L 85.5 39 L 68.5 46 L 52 60.5 Q 42.9 70.4 39.5 86 L 39 81.5 Q 45.1 56.1 62.5 42 L 80.5 31 L 99.5 26 Z " /><path fill="rgb(250,202,5)" stroke="rgb(250,202,5)" stroke-width="1" opacity="1" d="M 219.5 36 L 220 44.5 L 215 63.5 L 210 73.5 Q 201 89 187.5 100 L 177 107.5 Q 171.3 134.8 152.5 149 Q 143.5 156.5 131.5 161 L 119.5 164 L 114.5 164 L 114.5 163 Q 137 158 149 142.5 Q 158.2 132 162 117 L 141.5 125 L 119.5 130 L 119.5 129 Q 161.8 111.3 190 79.5 Q 207.7 60.7 219.5 36 Z " /><path fill="rgb(250,202,5)" stroke="rgb(250,202,5)" stroke-width="1" opacity="1" d="M 98.5 72 Q 118.5 70.5 125 82.5 Q 129.9 89.1 130 100.5 L 127 110.5 L 119.5 119 L 108.5 124 L 99.5 124 Q 89.8 121.7 84 115.5 L 78 104.5 L 78 91.5 Q 80.8 82.3 87.5 77 L 98.5 72 Z " /><path fill="rgb(250,202,5)" stroke="rgb(250,202,5)" stroke-width="1" opacity="1" d="M 38.5 89 L 39 91.5 L 38 91.5 L 38.5 89 Z " /></svg>